<svg width="1013" height="1014" xmlns="http://www.w3.org/2000/svg" xmlns:xlink="http://www.w3.org/1999/xlink" xml:space="preserve" overflow="hidden"><defs><clipPath id="clip0"><rect x="783" y="744" width="1013" height="1014"/></clipPath><linearGradient x1="1380" y1="1556" x2="1380" y2="1080" gradientUnits="userSpaceOnUse" spreadMethod="reflect" id="fill1"><stop offset="0" stop-color="#FFFFFF"/><stop offset="0.94" stop-color="#BFBFBF"/><stop offset="1" stop-color="#6F6F6F"/></linearGradient><linearGradient x1="1194" y1="1563" x2="1194" y2="1092" gradientUnits="userSpaceOnUse" spreadMethod="reflect" id="fill2"><stop offset="0" stop-color="#FFFFFF"/><stop offset="0.94" stop-color="#BFBFBF"/><stop offset="1" stop-color="#6F6F6F"/></linearGradient></defs><g clip-path="url(#clip0)" transform="translate(-783 -744)"><path d="M783 912.837C783 819.591 858.591 744 951.837 744L1627.16 744C1720.41 744 1796 819.591 1796 912.837L1796 1589.16C1796 1682.41 1720.41 1758 1627.16 1758L951.837 1758C858.591 1758 783 1682.41 783 1589.16Z" fill="#001529" fill-rule="evenodd"/><path d="M1210.57 1080.07C1213.37 1080.38 1216.05 1081.75 1217.95 1084.12L1596 1556 1511.44 1556 1166.41 1125.35C1162.62 1120.61 1163.38 1113.69 1168.13 1109.9L1202.48 1082.41C1204.85 1080.51 1207.77 1079.76 1210.57 1080.07Z" fill="url(#fill1)" fill-rule="evenodd"/><path d="M1361.46 1092.07C1364.26 1091.76 1367.17 1092.51 1369.54 1094.41L1403.88 1121.88C1408.62 1125.67 1409.38 1132.58 1405.59 1137.32L1064.51 1563 980 1563 1354.09 1096.12C1355.98 1093.75 1358.66 1092.38 1361.46 1092.07Z" fill="url(#fill2)" fill-rule="evenodd"/><path d="M1283.54 910.925C1341.97 909.694 1401.2 927.991 1450.7 967.048 1563.85 1056.32 1583.34 1220.24 1494.24 1333.18 1405.13 1446.12 1241.17 1465.3 1128.02 1376.03 1014.87 1286.76 995.382 1122.84 1084.49 1009.9 1134.61 946.371 1208.42 912.507 1283.54 910.925ZM1283.33 933.446C1294.28 985.854 1300.12 1072.19 1245.76 1141.1 1191.79 1209.51 1109.36 1222.25 1056.86 1222.49 1068.2 1274.41 1096.99 1322.96 1141.92 1358.42 1187.34 1394.25 1241.68 1410.76 1295.23 1409.51 1284.44 1357.23 1278.6 1270.89 1332.96 1201.99 1386.94 1133.57 1469.37 1120.83 1521.86 1120.59 1510.53 1068.67 1481.74 1020.12 1436.8 984.665 1391.38 948.828 1337.05 932.324 1283.33 933.446ZM1526.35 1148.38C1479.55 1148.11 1402.57 1158.29 1354.62 1219.07 1306.28 1280.33 1313.14 1360.36 1323.27 1407.11 1381.76 1398.94 1437.23 1369.14 1476.59 1319.26 1516.2 1269.04 1532.21 1207.58 1526.35 1148.38ZM1255.45 935.97C1196.97 944.141 1141.5 973.936 1102.14 1023.82 1062.52 1074.04 1046.52 1135.5 1052.38 1194.7 1099.14 1194.68 1176.16 1184.79 1224.11 1124.01 1272.44 1062.75 1265.58 982.722 1255.45 935.97Z" fill="#001529" fill-rule="evenodd"/><path d="M1526.35 1148.38C1532.2 1207.58 1516.2 1269.04 1476.59 1319.26 1437.23 1369.14 1381.76 1398.94 1323.27 1407.11 1313.14 1360.36 1306.28 1280.33 1354.62 1219.07 1402.57 1158.29 1479.55 1148.11 1526.35 1148.38Z" fill="#FFFFFF" fill-rule="evenodd"/><path d="M1283.33 933.447C1337.04 932.324 1391.38 948.828 1436.8 984.666 1481.74 1020.12 1510.52 1068.67 1521.86 1120.59 1469.37 1120.83 1386.94 1133.57 1332.96 1201.99 1278.6 1270.89 1284.44 1357.23 1295.23 1409.51 1241.68 1410.76 1187.34 1394.25 1141.92 1358.42 1096.99 1322.96 1068.2 1274.41 1056.86 1222.49 1109.35 1222.25 1191.78 1209.51 1245.76 1141.1 1300.12 1072.2 1294.28 985.854 1283.33 933.447Z" fill="#FFFFFF" fill-rule="evenodd"/><path d="M1255.45 935.97C1265.58 982.722 1272.44 1062.75 1224.11 1124.01 1176.16 1184.79 1099.14 1194.68 1052.38 1194.7 1046.52 1135.5 1062.52 1074.04 1102.14 1023.82 1141.5 973.936 1196.97 944.141 1255.45 935.97Z" fill="#FFFFFF" fill-rule="evenodd"/></g></svg>